<svg id="Group_7458" data-name="Group 7458" xmlns="http://www.w3.org/2000/svg" width="14.379" height="14.867" viewBox="0 0 14.379 14.867">
  <path id="Path_23028" data-name="Path 23028" d="M181.489,537.82h-3.2V530.9c0-.809-.231-1.376-1.226-1.376A1.917,1.917,0,0,0,175.1,530.9v6.915h-3.2V526.636h3.2v1.069a5.338,5.338,0,0,1,3.2-1.068c1.036,0,3.2.621,3.2,4.365Z" transform="translate(-167.11 -522.953)" fill="#fff" fill-rule="evenodd"/>
  <path id="Path_23029" data-name="Path 23029" d="M158.02,517.3h0a1.5,1.5,0,1,1,1.5-1.5A1.5,1.5,0,0,1,158.02,517.3Z" transform="translate(-156.323 -514.303)" fill="#fff" fill-rule="evenodd"/>
  <path id="Path_23030" data-name="Path 23030" d="M159.049,537.82h-3.2V526.636h3.2Z" transform="translate(-155.853 -522.953)" fill="#fff" fill-rule="evenodd"/>
</svg>
