<svg id="Group_8142" data-name="Group 8142" xmlns="http://www.w3.org/2000/svg" width="33.854" height="35.022" viewBox="0 0 33.854 35.022">
  <g id="Group_8141" data-name="Group 8141" transform="translate(0)">
    <g id="Path_23070" data-name="Path 23070" fill="none">
      <path d="M16.927,0c9.349,0,16.927,7.84,16.927,17.511S26.276,35.022,16.927,35.022,0,27.182,0,17.511,7.579,0,16.927,0Z" stroke="none"/>
      <path d="M 16.92725563049316 1.000003814697266 C 12.67935562133789 1.000003814697266 8.68388557434082 2.713153839111328 5.67686653137207 5.823863983154297 C 2.66093635559082 8.943784713745117 0.9999961853027344 13.0943431854248 0.9999961853027344 17.51095390319824 C 0.9999961853027344 21.92756271362305 2.66093635559082 26.078125 5.67686653137207 29.19804382324219 C 8.68388557434082 32.30875396728516 12.67935562133789 34.02190399169922 16.92725563049316 34.02190399169922 C 21.17515563964844 34.02190399169922 25.17061614990234 32.30875396728516 28.17764663696289 29.19804382324219 C 31.19357490539551 26.078125 32.85451507568359 21.92756271362305 32.85451507568359 17.51095390319824 C 32.85451507568359 13.0943431854248 31.19357490539551 8.943784713745117 28.17764663696289 5.823863983154297 C 25.17061614990234 2.713153839111328 21.17515563964844 1.000003814697266 16.92725563049316 1.000003814697266 M 16.92725563049316 3.814697265625e-06 C 26.27591514587402 3.814697265625e-06 33.85451507568359 7.839923858642578 33.85451507568359 17.51095390319824 C 33.85451507568359 27.18198394775391 26.27591514587402 35.02190399169922 16.92725563049316 35.02190399169922 C 7.578586578369141 35.02190399169922 -3.814697265625e-06 27.18198394775391 -3.814697265625e-06 17.51095390319824 C -3.814697265625e-06 7.839923858642578 7.578586578369141 3.814697265625e-06 16.92725563049316 3.814697265625e-06 Z" stroke="none" fill="#abbbc4"/>
    </g>
    <path id="Path_23065" data-name="Path 23065" d="M-22.5-7.058A1.881,1.881,0,0,1-23.908-7.6a1.935,1.935,0,0,1-.534-1.416,1.931,1.931,0,0,1,.534-1.421,1.891,1.891,0,0,1,1.406-.539,1.921,1.921,0,0,1,1.421.539,1.921,1.921,0,0,1,.539,1.421A1.925,1.925,0,0,1-21.081-7.6,1.911,1.911,0,0,1-22.5-7.058Zm0-.9a1.024,1.024,0,0,0,.764-.3,1.038,1.038,0,0,0,.292-.759,1.026,1.026,0,0,0-.287-.759,1.04,1.04,0,0,0-.77-.287,1.031,1.031,0,0,0-.754.287,1.017,1.017,0,0,0-.292.759,1.038,1.038,0,0,0,.292.759A1.011,1.011,0,0,0-22.5-7.961Zm9,9.891a5.1,5.1,0,0,1-3.8-1.257A5.524,5.524,0,0,1-18.532-3.3V-5.765A5.473,5.473,0,0,1-17.3-9.726a5.119,5.119,0,0,1,3.8-1.252A5.346,5.346,0,0,1-9.734-9.818,4.561,4.561,0,0,1-8.5-6.33h-1.734q0-3.324-3.273-3.324a3.18,3.18,0,0,0-2.468.893,4.113,4.113,0,0,0-.816,2.832v2.791a4.19,4.19,0,0,0,.816,2.863,3.16,3.16,0,0,0,2.468.9q3.273,0,3.273-3.365H-8.5A4.593,4.593,0,0,1-9.734.765,5.331,5.331,0,0,1-13.5,1.93Z" transform="translate(32.081 22.652)" fill="#abbbc4"/>
  </g>
</svg>
