<svg id="Group_8639" data-name="Group 8639" xmlns="http://www.w3.org/2000/svg" xmlns:xlink="http://www.w3.org/1999/xlink" width="18.933" height="12.836" viewBox="0 0 18.933 12.836">
  <defs>
    <clipPath id="clip-path">
      <rect id="Rectangle_2089" data-name="Rectangle 2089" width="18.933" height="12.836"/>
    </clipPath>
  </defs>
  <g id="Group_8638" data-name="Group 8638" clip-path="url(#clip-path)">
    <path id="Path_23322" data-name="Path 23322" d="M9.819,75.423a.693.693,0,0,1-.7,0L.3,70.216a.2.2,0,0,0-.3.169v7.909a1.488,1.488,0,0,0,1.488,1.488H17.444a1.488,1.488,0,0,0,1.488-1.488V70.385a.2.2,0,0,0-.3-.169Z" transform="translate(0 -66.947)"/>
    <path id="Path_23323" data-name="Path 23323" d="M9.955,6.844l8.973-5.3a.2.2,0,0,0,.1-.183A1.49,1.49,0,0,0,17.541,0H1.585A1.49,1.49,0,0,0,.1,1.363a.2.2,0,0,0,.1.183l8.973,5.3a.77.77,0,0,0,.783,0" transform="translate(-0.097)"/>
  </g>
</svg>
