<svg id="Group_8814" data-name="Group 8814" xmlns="http://www.w3.org/2000/svg" xmlns:xlink="http://www.w3.org/1999/xlink" width="24" height="17" viewBox="0 0 24 17">
  <defs>
    <clipPath id="clip-path">
      <rect id="Rectangle_2305" data-name="Rectangle 2305" width="24" height="17" fill="#fff"/>
    </clipPath>
  </defs>
  <g id="Group_8814-2" data-name="Group 8814" clip-path="url(#clip-path)">
    <path id="Path_23433" data-name="Path 23433" d="M58.034,134.1c-1.331,0-2.034-.747-2.034-2.16,0-1.376.7-3.943,2.034-3.943s2.034,2.567,2.034,3.943C60.068,133.356,59.365,134.1,58.034,134.1Zm0-5.085c-.311.023-1.017,1.535-1.017,2.926,0,.956.373,1.143,1.017,1.143s1.017-.187,1.017-1.143C59.051,130.552,58.345,129.04,58.034,129.017Z" transform="translate(-52.44 -119.863)" fill="#fff"/>
    <path id="Line_440" data-name="Line 440" d="M-7.491-5.308A.509.509,0,0,1-8-5.816V-7.491A.509.509,0,0,1-7.491-8a.509.509,0,0,1,.509.509v1.675A.509.509,0,0,1-7.491-5.308Z" transform="translate(13.085 21.222)" fill="#fff"/>
    <path id="Path_23434" data-name="Path 23434" d="M255.628,227.051h-1.017a.509.509,0,0,1-.509-.509v-.254a.762.762,0,0,0-1.306-.534.509.509,0,0,1-.824-.143,1.015,1.015,0,0,0-1.938.423v.509a.509.509,0,0,1-.509.509h-1.017a.509.509,0,1,1,0-1.017h.509a2.031,2.031,0,0,1,3.551-1.35,1.781,1.781,0,0,1,2.534,1.35h.527a.509.509,0,0,1,0,1.017Z" transform="translate(-232.235 -209.761)" fill="#fff"/>
    <path id="Path_23435" data-name="Path 23435" d="M7.119,229.727H6.575a.509.509,0,0,1-.509-.509v-.232a.648.648,0,0,0-1.112-.455.509.509,0,0,1-.824-.143.879.879,0,0,0-1.678.367v.463a.509.509,0,0,1-.509.509H.509a.509.509,0,1,1,0-1.017h.927a1.895,1.895,0,0,1,3.29-1.24,1.668,1.668,0,0,1,2.335,1.24h.059a.509.509,0,1,1,0,1.017Z" transform="translate(0 -212.436)" fill="#fff"/>
    <path id="Path_23436" data-name="Path 23436" d="M155.56,157.594a.509.509,0,0,1-.509-.509v-4.068h-2.034v4.068a.509.509,0,0,1-1.017,0v-4.577a.509.509,0,0,1,.509-.509h3.051a.509.509,0,0,1,.509.509v4.577A.509.509,0,0,1,155.56,157.594Z" transform="translate(-142.338 -142.338)" fill="#fff"/>
    <path id="Rectangle_2304" data-name="Rectangle 2304" d="M-7.491-8H-4.44a.509.509,0,0,1,.509.509V-4.44a.509.509,0,0,1-.509.509H-7.491A.509.509,0,0,1-8-4.44V-7.491A.509.509,0,0,1-7.491-8Zm2.543,1.017H-6.983v2.034h2.034Z" transform="translate(23.765 17.662)" fill="#fff"/>
    <path id="Path_23437" data-name="Path 23437" d="M134.611,249.526a.509.509,0,0,1-.509-.509h-5.085a.509.509,0,0,1-1.017,0v-.509a.509.509,0,0,1,.509-.509h6.1a.509.509,0,0,1,.509.509v.509A.509.509,0,0,1,134.611,249.526Z" transform="translate(-119.863 -232.235)" fill="#fff"/>
    <path id="Line_441" data-name="Line 441" d="M-6.983-6.983h-.509A.509.509,0,0,1-8-7.491.509.509,0,0,1-7.491-8h.509a.509.509,0,0,1,.509.509A.509.509,0,0,1-6.983-6.983Z" transform="translate(23.256 20.713)" fill="#fff"/>
    <path id="Line_442" data-name="Line 442" d="M-6.983-6.983h-.509A.509.509,0,0,1-8-7.491.509.509,0,0,1-7.491-8h.509a.509.509,0,0,1,.509.509A.509.509,0,0,1-6.983-6.983Z" transform="translate(26.816 20.713)" fill="#fff"/>
    <path id="Ellipse_5" data-name="Ellipse 5" d="M-5.966-8A2.036,2.036,0,0,1-3.932-5.966,2.036,2.036,0,0,1-5.966-3.932,2.036,2.036,0,0,1-8-5.966,2.036,2.036,0,0,1-5.966-8Zm0,3.051A1.018,1.018,0,0,0-4.949-5.966,1.018,1.018,0,0,0-5.966-6.983,1.018,1.018,0,0,0-6.983-5.966,1.018,1.018,0,0,0-5.966-4.949Z" transform="translate(17.662 12.068)" fill="#fff"/>
    <path id="Line_443" data-name="Line 443" d="M-7.491.137A.509.509,0,0,1-8-.372V-7.491A.509.509,0,0,1-7.491-8a.509.509,0,0,1,.509.509V-.372A.509.509,0,0,1-7.491.137Z" transform="translate(29.358 14.102)" fill="#fff"/>
    <path id="Path_23438" data-name="Path 23438" d="M5.594,7.119H.509A.509.509,0,0,1,0,6.611V2.034a.509.509,0,0,1,.509-.509H9.96L11.337.149a.509.509,0,0,1,.719.719l-6.1,6.1A.509.509,0,0,1,5.594,7.119ZM1.017,6.1H5.383l3.56-3.56H1.017Z" transform="translate(0 0)" fill="#fff"/>
    <path id="Line_444" data-name="Line 444" d="M-7.491.137A.509.509,0,0,1-8-.372V-7.491A.509.509,0,0,1-7.491-8a.509.509,0,0,1,.509.509V-.372A.509.509,0,0,1-7.491.137Z" transform="translate(9.017 14.102)" fill="#fff"/>
    <path id="Path_23439" data-name="Path 23439" d="M187.7,7.119h-5.085a.509.509,0,0,1-.36-.149l-6.1-6.1a.509.509,0,1,1,.719-.719l1.377,1.377H187.7a.509.509,0,0,1,.509.509V6.611A.509.509,0,0,1,187.7,7.119ZM182.822,6.1h4.366V2.543h-7.926Z" transform="translate(-164.812 0)" fill="#fff"/>
  </g>
</svg>
