<svg id="Group_8813" data-name="Group 8813" xmlns="http://www.w3.org/2000/svg" width="24.016" height="19.013" viewBox="0 0 24.016 19.013">
  <path id="Path_23409" data-name="Path 23409" d="M64.5,762a.5.5,0,0,1-.5-.5v-1a.5.5,0,0,1,1,0v1a.5.5,0,0,1-.5.5" transform="translate(-59.997 -753.496)" fill="#fff"/>
  <path id="Path_23410" data-name="Path 23410" d="M96.5,762a.5.5,0,0,1-.5-.5v-1a.5.5,0,0,1,1,0v1a.5.5,0,0,1-.5.5" transform="translate(-89.996 -753.496)" fill="#fff"/>
  <path id="Path_23411" data-name="Path 23411" d="M64.5,818a.5.5,0,0,1-.5-.5v-1a.5.5,0,1,1,1,0v1a.5.5,0,0,1-.5.5" transform="translate(-59.997 -805.993)" fill="#fff"/>
  <path id="Path_23412" data-name="Path 23412" d="M96.5,818a.5.5,0,0,1-.5-.5v-1a.5.5,0,1,1,1,0v1a.5.5,0,0,1-.5.5" transform="translate(-89.996 -805.993)" fill="#fff"/>
  <path id="Path_23413" data-name="Path 23413" d="M64.5,874a.5.5,0,0,1-.5-.5v-1a.5.5,0,1,1,1,0v1a.5.5,0,0,1-.5.5" transform="translate(-59.997 -858.491)" fill="#fff"/>
  <path id="Path_23414" data-name="Path 23414" d="M96.5,874a.5.5,0,0,1-.5-.5v-1a.5.5,0,1,1,1,0v1a.5.5,0,0,1-.5.5" transform="translate(-89.996 -858.491)" fill="#fff"/>
  <path id="Path_23415" data-name="Path 23415" d="M25,727.51a.5.5,0,0,1-.5-.5v-12.8l-.354-.354A.5.5,0,0,1,24,713.5v-1a.5.5,0,0,1,.5-.5H31a.5.5,0,0,1,0,1H25v.293l.354.354A.5.5,0,0,1,25.5,714V727.01a.5.5,0,0,1-.5.5" transform="translate(-22.499 -708.498)" fill="#fff"/>
  <path id="Path_23416" data-name="Path 23416" d="M312.5,762a.5.5,0,0,1-.5-.5v-1a.5.5,0,0,1,1,0v1a.5.5,0,0,1-.5.5" transform="translate(-292.487 -753.496)" fill="#fff"/>
  <path id="Path_23417" data-name="Path 23417" d="M280.5,762a.5.5,0,0,1-.5-.5v-1a.5.5,0,0,1,1,0v1a.5.5,0,0,1-.5.5" transform="translate(-262.489 -753.496)" fill="#fff"/>
  <path id="Path_23418" data-name="Path 23418" d="M312.5,818a.5.5,0,0,1-.5-.5v-1a.5.5,0,1,1,1,0v1a.5.5,0,0,1-.5.5" transform="translate(-292.487 -805.993)" fill="#fff"/>
  <path id="Path_23419" data-name="Path 23419" d="M280.5,818a.5.5,0,0,1-.5-.5v-1a.5.5,0,1,1,1,0v1a.5.5,0,0,1-.5.5" transform="translate(-262.489 -805.993)" fill="#fff"/>
  <path id="Path_23420" data-name="Path 23420" d="M312.5,874a.5.5,0,0,1-.5-.5v-1a.5.5,0,1,1,1,0v1a.5.5,0,0,1-.5.5" transform="translate(-292.487 -858.491)" fill="#fff"/>
  <path id="Path_23421" data-name="Path 23421" d="M280.5,874a.5.5,0,0,1-.5-.5v-1a.5.5,0,1,1,1,0v1a.5.5,0,0,1-.5.5" transform="translate(-262.489 -858.491)" fill="#fff"/>
  <path id="Path_23422" data-name="Path 23422" d="M254.5,724.508a.5.5,0,0,1-.5-.5V714a.5.5,0,0,1,.147-.354l.354-.354V713h-6a.5.5,0,0,1,0-1H255a.5.5,0,0,1,.5.5v1a.5.5,0,0,1-.147.354l-.354.354v9.8a.5.5,0,0,1-.5.5" transform="translate(-232.49 -708.498)" fill="#fff"/>
  <path id="Path_23423" data-name="Path 23423" d="M168.5,706a.5.5,0,0,1-.5-.5v-1a.5.5,0,0,1,1,0v1a.5.5,0,0,1-.5.5" transform="translate(-157.493 -700.998)" fill="#fff"/>
  <path id="Path_23424" data-name="Path 23424" d="M208.5,706a.5.5,0,0,1-.5-.5v-1a.5.5,0,0,1,1,0v1a.5.5,0,0,1-.5.5" transform="translate(-194.991 -700.998)" fill="#fff"/>
  <path id="Path_23425" data-name="Path 23425" d="M168.5,762a.5.5,0,0,1-.5-.5v-1a.5.5,0,0,1,1,0v1a.5.5,0,0,1-.5.5" transform="translate(-157.493 -753.496)" fill="#fff"/>
  <path id="Path_23426" data-name="Path 23426" d="M208.5,762a.5.5,0,0,1-.5-.5v-1a.5.5,0,0,1,1,0v1a.5.5,0,0,1-.5.5" transform="translate(-194.991 -753.496)" fill="#fff"/>
  <path id="Path_23427" data-name="Path 23427" d="M168.5,818a.5.5,0,0,1-.5-.5v-1a.5.5,0,1,1,1,0v1a.5.5,0,0,1-.5.5" transform="translate(-157.493 -805.993)" fill="#fff"/>
  <path id="Path_23428" data-name="Path 23428" d="M208.5,818a.5.5,0,0,1-.5-.5v-1a.5.5,0,1,1,1,0v1a.5.5,0,0,1-.5.5" transform="translate(-194.991 -805.993)" fill="#fff"/>
  <path id="Path_23429" data-name="Path 23429" d="M4,945H.5a.5.5,0,1,1,0-1H4a.5.5,0,1,1,0,1" transform="translate(0 -925.988)" fill="#fff"/>
  <path id="Path_23430" data-name="Path 23430" d="M128.506,675.012h-2a.5.5,0,0,1-.5-.5v-3.5h-2v.5a.5.5,0,0,1-1,0v-1a.5.5,0,0,1,.5-.5h3a.5.5,0,0,1,.5.5v3.5h1V658a.5.5,0,0,1,.147-.354l.354-.354V657H121v.293l.354.354a.5.5,0,0,1,.147.354V671.01a.5.5,0,1,1-1,0v-12.8l-.354-.354A.5.5,0,0,1,120,657.5v-1a.5.5,0,0,1,.5-.5h8.506a.5.5,0,0,1,.5.5v1a.5.5,0,0,1-.147.354l-.354.354v16.3a.5.5,0,0,1-.5.5" transform="translate(-112.495 -656)" fill="#fff"/>
  <path id="Path_23431" data-name="Path 23431" d="M87.5,915h-1a.5.5,0,0,1-.5-.5v-.25a.749.749,0,0,0-1.285-.526.5.5,0,0,1-.811-.141A1,1,0,0,0,82,914v.5a.5.5,0,0,1-.5.5h-1a.5.5,0,1,1,0-1H81a2,2,0,0,1,3.493-1.328A1.752,1.752,0,0,1,86.987,914H87.5a.5.5,0,1,1,0,1" transform="translate(-74.997 -895.99)" fill="#fff"/>
  <path id="Path_23432" data-name="Path 23432" d="M278.5,919.287h-.858a.5.5,0,0,1-.5-.5v-.429a.784.784,0,0,0-1.5-.327.5.5,0,0,1-.811.141.571.571,0,0,0-.979.4v.214a.5.5,0,0,1-.5.5H272.5a.5.5,0,0,1,0-1h.383a1.574,1.574,0,0,1,2.18-1.154,1.784,1.784,0,0,1,3.082,1.154h.359a.5.5,0,0,1,0,1" transform="translate(-254.989 -900.274)" fill="#fff"/>
</svg>
