<svg xmlns="http://www.w3.org/2000/svg" xmlns:xlink="http://www.w3.org/1999/xlink" width="22" height="23" viewBox="0 0 22 23">
  <defs>
    <clipPath id="clip-path">
      <rect id="Rectangle_2300" data-name="Rectangle 2300" width="22" height="23" transform="translate(0 0.03)" fill="#fff"/>
    </clipPath>
  </defs>
  <g id="Group_8803" data-name="Group 8803" transform="translate(0 -0.03)">
    <path id="Path_23386" data-name="Path 23386" d="M91.8,202.832a.472.472,0,0,1-.149-.024l-5.515-1.838-5.515,1.838a.472.472,0,0,1-.3-.9l5.665-1.888a.472.472,0,0,1,.3,0l5.665,1.888a.472.472,0,0,1-.149.92Z" transform="translate(-75.277 -188.199)" fill="#fff"/>
    <path id="Line_440" data-name="Line 440" d="M1.913-7.056H-7.528A.472.472,0,0,1-8-7.528.472.472,0,0,1-7.528-8H1.913a.472.472,0,0,1,.472.472A.472.472,0,0,1,1.913-7.056Z" transform="translate(13.665 22.634)" fill="#fff"/>
    <path id="Line_441" data-name="Line 441" d="M1.913-7.056H-7.528A.472.472,0,0,1-8-7.528.472.472,0,0,1-7.528-8H1.913a.472.472,0,0,1,.472.472A.472.472,0,0,1,1.913-7.056Z" transform="translate(13.665 28.298)" fill="#fff"/>
    <g id="Group_8804" data-name="Group 8804">
      <g id="Group_8803-2" data-name="Group 8803" clip-path="url(#clip-path)">
        <path id="Line_442" data-name="Line 442" d="M3.8-7.056H-7.528A.472.472,0,0,1-8-7.528.472.472,0,0,1-7.528-8H3.8a.472.472,0,0,1,.472.472A.472.472,0,0,1,3.8-7.056Z" transform="translate(12.721 29.714)" fill="#fff"/>
      </g>
    </g>
    <path id="Line_443" data-name="Line 443" d="M-7.528-4.224A.472.472,0,0,1-8-4.7V-7.528A.472.472,0,0,1-7.528-8a.472.472,0,0,1,.472.472V-4.7A.472.472,0,0,1-7.528-4.224Z" transform="translate(14.609 24.05)" fill="#fff"/>
    <path id="Line_444" data-name="Line 444" d="M-7.528-4.224A.472.472,0,0,1-8-4.7V-7.528A.472.472,0,0,1-7.528-8a.472.472,0,0,1,.472.472V-4.7A.472.472,0,0,1-7.528-4.224Z" transform="translate(16.497 24.05)" fill="#fff"/>
    <path id="Line_445" data-name="Line 445" d="M-7.528-4.224A.472.472,0,0,1-8-4.7V-7.528A.472.472,0,0,1-7.528-8a.472.472,0,0,1,.472.472V-4.7A.472.472,0,0,1-7.528-4.224Z" transform="translate(18.385 24.05)" fill="#fff"/>
    <path id="Line_446" data-name="Line 446" d="M-7.528-4.224A.472.472,0,0,1-8-4.7V-7.528A.472.472,0,0,1-7.528-8a.472.472,0,0,1,.472.472V-4.7A.472.472,0,0,1-7.528-4.224Z" transform="translate(20.273 24.05)" fill="#fff"/>
    <path id="Line_447" data-name="Line 447" d="M-7.528-4.224A.472.472,0,0,1-8-4.7V-7.528A.472.472,0,0,1-7.528-8a.472.472,0,0,1,.472.472V-4.7A.472.472,0,0,1-7.528-4.224Z" transform="translate(22.162 24.05)" fill="#fff"/>
    <g id="Group_8806" data-name="Group 8806">
      <g id="Group_8805" data-name="Group 8805" clip-path="url(#clip-path)">
        <path id="Path_23387" data-name="Path 23387" d="M231.081,120.522a.472.472,0,0,1-.472-.472V104.944h-5.665v3.776a.472.472,0,0,1-.944,0v-4.248a.472.472,0,0,1,.472-.472h6.609a.472.472,0,0,1,.472.472V120.05A.472.472,0,0,1,231.081,120.522Z" transform="translate(-210.783 -97.863)" fill="#fff"/>
      </g>
    </g>
    <path id="Line_448" data-name="Line 448" d="M-7.528-6.112A.472.472,0,0,1-8-6.584v-.944A.472.472,0,0,1-7.528-8a.472.472,0,0,1,.472.472v.944A.472.472,0,0,1-7.528-6.112Z" transform="translate(25.466 16.497)" fill="#fff"/>
    <path id="Line_449" data-name="Line 449" d="M-7.528-6.112A.472.472,0,0,1-8-6.584v-.944A.472.472,0,0,1-7.528-8a.472.472,0,0,1,.472.472v.944A.472.472,0,0,1-7.528-6.112Z" transform="translate(25.466 19.801)" fill="#fff"/>
    <path id="Line_450" data-name="Line 450" d="M-7.528-6.112A.472.472,0,0,1-8-6.584v-.944A.472.472,0,0,1-7.528-8a.472.472,0,0,1,.472.472v.944A.472.472,0,0,1-7.528-6.112Z" transform="translate(23.578 16.497)" fill="#fff"/>
    <path id="Line_451" data-name="Line 451" d="M-7.528-6.112A.472.472,0,0,1-8-6.584v-.944A.472.472,0,0,1-7.528-8a.472.472,0,0,1,.472.472v.944A.472.472,0,0,1-7.528-6.112Z" transform="translate(25.466 23.106)" fill="#fff"/>
    <path id="Line_452" data-name="Line 452" d="M-7.528-6.112A.472.472,0,0,1-8-6.584v-.944A.472.472,0,0,1-7.528-8a.472.472,0,0,1,.472.472v.944A.472.472,0,0,1-7.528-6.112Z" transform="translate(25.466 26.41)" fill="#fff"/>
    <g id="Group_8808" data-name="Group 8808">
      <g id="Group_8807" data-name="Group 8807" clip-path="url(#clip-path)">
        <path id="Line_453" data-name="Line 453" d="M-3.752-7.056H-7.528A.472.472,0,0,1-8-7.528.472.472,0,0,1-7.528-8h3.776a.472.472,0,0,1,.472.472A.472.472,0,0,1-3.752-7.056Z" transform="translate(25.466 29.714)" fill="#fff"/>
        <path id="Path_23388" data-name="Path 23388" d="M40.472,180.745a.472.472,0,0,1-.472-.472v-11.8a.472.472,0,0,1,.472-.472h5.193a.472.472,0,0,1,.472.472v1.416a.472.472,0,1,1-.944,0v-.944H40.944v11.329A.472.472,0,0,1,40.472,180.745Z" transform="translate(-37.64 -158.087)" fill="#fff"/>
        <path id="Line_454" data-name="Line 454" d="M-4.224-7.056h-3.3A.472.472,0,0,1-8-7.528.472.472,0,0,1-7.528-8h3.3a.472.472,0,0,1,.472.472A.472.472,0,0,1-4.224-7.056Z" transform="translate(8 29.714)" fill="#fff"/>
      </g>
    </g>
    <path id="Path_23389" data-name="Path 23389" d="M112.472,47.081a.472.472,0,0,1-.472-.472V40.472a.472.472,0,0,1,.472-.472h9.441a.472.472,0,0,1,.472.472v2.36a.472.472,0,1,1-.944,0V40.944h-8.5v5.665A.472.472,0,0,1,112.472,47.081Z" transform="translate(-105.391 -37.64)" fill="#fff"/>
    <g id="Group_8810" data-name="Group 8810">
      <g id="Group_8809" data-name="Group 8809" clip-path="url(#clip-path)">
        <path id="Path_23390" data-name="Path 23390" d="M143.081,3.3a.472.472,0,0,1-.472-.472V.944h-5.665V2.832a.472.472,0,1,1-.944,0V.472A.472.472,0,0,1,136.472,0h6.609a.472.472,0,0,1,.472.472v2.36A.472.472,0,0,1,143.081,3.3Z" transform="translate(-127.975 0)" fill="#fff"/>
      </g>
    </g>
    <path id="Line_455" data-name="Line 455" d="M-2.807-7.056H-7.528A.472.472,0,0,1-8-7.528.472.472,0,0,1-7.528-8h4.721a.472.472,0,0,1,.472.472A.472.472,0,0,1-2.807-7.056Z" transform="translate(16.969 12.248)" fill="#fff"/>
    <path id="Line_456" data-name="Line 456" d="M-5.168-7.056h-2.36A.472.472,0,0,1-8-7.528.472.472,0,0,1-7.528-8h2.36a.472.472,0,0,1,.472.472A.472.472,0,0,1-5.168-7.056Z" transform="translate(16.969 14.137)" fill="#fff"/>
    <path id="Line_457" data-name="Line 457" d="M-5.168-7.056h-2.36A.472.472,0,0,1-8-7.528.472.472,0,0,1-7.528-8h2.36a.472.472,0,0,1,.472.472A.472.472,0,0,1-5.168-7.056Z" transform="translate(16.969 16.025)" fill="#fff"/>
    <path id="Line_458" data-name="Line 458" d="M-5.168-7.056h-2.36A.472.472,0,0,1-8-7.528.472.472,0,0,1-7.528-8h2.36a.472.472,0,0,1,.472.472A.472.472,0,0,1-5.168-7.056Z" transform="translate(16.969 17.913)" fill="#fff"/>
  </g>
</svg>
