<svg id="Group_8812" data-name="Group 8812" xmlns="http://www.w3.org/2000/svg" width="23.015" height="22.014" viewBox="0 0 23.015 22.014">
  <path id="Path_23386" data-name="Path 23386" d="M1310.515,337H1288.5a.5.5,0,1,1,0-1h22.015a.5.5,0,0,1,0,1" transform="translate(-1288 -314.986)" fill="#fff"/>
  <path id="Path_23387" data-name="Path 23387" d="M1317.5,67.012a.5.5,0,0,1-.5-.5V49.46l-4,2.8V66.511a.5.5,0,1,1-1,0V52a.5.5,0,0,1,.213-.41l5-3.5a.5.5,0,0,1,.787.41V66.511a.5.5,0,0,1-.5.5" transform="translate(-1310.499 -44.997)" fill="#fff"/>
  <path id="Path_23388" data-name="Path 23388" d="M1493.5,127.009a.5.5,0,0,1-.5-.5V116.262l-4.79-3.353a.5.5,0,0,1,.574-.82l5,3.5a.5.5,0,0,1,.213.41v10.507a.5.5,0,0,1-.5.5" transform="translate(-1475.491 -104.994)" fill="#fff"/>
  <path id="Path_23389" data-name="Path 23389" d="M1376.005,22.014a.5.5,0,0,1-.5-.5V1H1369V2.5a.5.5,0,0,1-1,0V.5a.5.5,0,0,1,.5-.5h7.505a.5.5,0,0,1,.5.5V21.514a.5.5,0,0,1-.5.5" transform="translate(-1362.996)" fill="#fff"/>
  <path id="Path_23390" data-name="Path 23390" d="M1541.5,97.011a.5.5,0,0,1-.5-.5V81h-4v1.5a.5.5,0,1,1-1,0v-2a.5.5,0,0,1,.5-.5h5a.5.5,0,0,1,.5.5v16.01a.5.5,0,0,1-.5.5" transform="translate(-1520.49 -74.997)" fill="#fff"/>
  <path id="Path_23391" data-name="Path 23391" d="M1314.5,137h-2a.5.5,0,1,1,0-1h2a.5.5,0,1,1,0,1" transform="translate(-1310.499 -127.494)" fill="#fff"/>
  <path id="Path_23392" data-name="Path 23392" d="M1314.5,177h-2a.5.5,0,1,1,0-1h2a.5.5,0,1,1,0,1" transform="translate(-1310.499 -164.993)" fill="#fff"/>
  <path id="Path_23393" data-name="Path 23393" d="M1314.5,217h-2a.5.5,0,1,1,0-1h2a.5.5,0,1,1,0,1" transform="translate(-1310.499 -202.491)" fill="#fff"/>
  <path id="Path_23394" data-name="Path 23394" d="M1314.5,257h-2a.5.5,0,1,1,0-1h2a.5.5,0,1,1,0,1" transform="translate(-1310.499 -239.99)" fill="#fff"/>
  <path id="Path_23395" data-name="Path 23395" d="M1314.5,297h-2a.5.5,0,1,1,0-1h2a.5.5,0,1,1,0,1" transform="translate(-1310.499 -277.488)" fill="#fff"/>
  <path id="Path_23396" data-name="Path 23396" d="M1433.5,129h-1a.5.5,0,1,1,0-1h1a.5.5,0,1,1,0,1" transform="translate(-1422.994 -119.995)" fill="#fff"/>
  <path id="Path_23397" data-name="Path 23397" d="M1433.5,169h-1a.5.5,0,1,1,0-1h1a.5.5,0,1,1,0,1" transform="translate(-1422.994 -157.493)" fill="#fff"/>
  <path id="Path_23398" data-name="Path 23398" d="M1433.5,49h-1a.5.5,0,1,1,0-1h1a.5.5,0,1,1,0,1" transform="translate(-1422.994 -44.998)" fill="#fff"/>
  <path id="Path_23399" data-name="Path 23399" d="M1433.5,89h-1a.5.5,0,1,1,0-1h1a.5.5,0,1,1,0,1" transform="translate(-1422.994 -82.496)" fill="#fff"/>
  <path id="Path_23400" data-name="Path 23400" d="M1433.5,209h-1a.5.5,0,1,1,0-1h1a.5.5,0,1,1,0,1" transform="translate(-1422.994 -194.992)" fill="#fff"/>
  <path id="Path_23401" data-name="Path 23401" d="M1433.5,249h-1a.5.5,0,1,1,0-1h1a.5.5,0,1,1,0,1" transform="translate(-1422.994 -232.49)" fill="#fff"/>
  <path id="Path_23402" data-name="Path 23402" d="M1433.5,289h-1a.5.5,0,1,1,0-1h1a.5.5,0,1,1,0,1" transform="translate(-1422.994 -269.988)" fill="#fff"/>
  <path id="Path_23403" data-name="Path 23403" d="M1525,185h-.5a.5.5,0,1,1,0-1h.5a.5.5,0,0,1,0,1" transform="translate(-1509.24 -172.493)" fill="#fff"/>
  <path id="Path_23404" data-name="Path 23404" d="M1525,225h-.5a.5.5,0,1,1,0-1h.5a.5.5,0,0,1,0,1" transform="translate(-1509.24 -209.991)" fill="#fff"/>
  <path id="Path_23405" data-name="Path 23405" d="M1525,265h-.5a.5.5,0,1,1,0-1h.5a.5.5,0,0,1,0,1" transform="translate(-1509.24 -247.489)" fill="#fff"/>
  <path id="Path_23406" data-name="Path 23406" d="M1525,305h-.5a.5.5,0,1,1,0-1h.5a.5.5,0,0,1,0,1" transform="translate(-1509.24 -284.988)" fill="#fff"/>
  <path id="Path_23407" data-name="Path 23407" d="M1560.5,6a.5.5,0,0,1-.5-.5V.5a.5.5,0,1,1,1,0v5a.5.5,0,0,1-.5.5" transform="translate(-1542.989)" fill="#fff"/>
  <path id="Path_23408" data-name="Path 23408" d="M1592.5,51a.5.5,0,0,1-.5-.5v-2a.5.5,0,1,1,1,0v2a.5.5,0,0,1-.5.5" transform="translate(-1572.988 -44.998)" fill="#fff"/>
</svg>
